<?xml version="1.0" encoding="UTF-8"?>
<svg version="1.1" xmlns="http://www.w3.org/2000/svg" width="512" height="512">
<path d="M0 0 C1.23321009 -0.00445784 2.46642019 -0.00891569 3.73700029 -0.01350862 C5.1025736 -0.01341933 6.46814692 -0.01322949 7.83372021 -0.01294994 C9.28681273 -0.01625057 10.73990433 -0.01997656 12.19299477 -0.02409142 C16.18696673 -0.03409739 20.18092366 -0.03782597 24.17490637 -0.04048073 C28.48260136 -0.04438809 32.7902845 -0.05396629 37.09797192 -0.0626936 C47.50317392 -0.08244832 57.90837688 -0.09252406 68.31359294 -0.10142139 C73.21729758 -0.10580689 78.12100114 -0.11117311 83.02470493 -0.11641026 C99.33319182 -0.13342338 115.64167803 -0.14791577 131.95017242 -0.155159 C136.18155258 -0.15706881 140.41293273 -0.15898915 144.64431286 -0.16094494 C145.69596601 -0.16142868 146.74761917 -0.16191242 147.8311406 -0.16241082 C164.85287808 -0.17070441 181.87454514 -0.1960296 198.89625189 -0.22852562 C216.38456077 -0.26163924 233.87283391 -0.27961174 251.36117429 -0.28280324 C261.1750584 -0.28496461 270.98883988 -0.29365833 280.80269337 -0.31926441 C289.16401462 -0.34103045 297.52520832 -0.34899298 305.8865547 -0.33929763 C310.14780707 -0.33476965 314.40879659 -0.33655083 318.67001247 -0.35605907 C322.58197636 -0.37381252 326.49348802 -0.37259577 330.40545752 -0.35716178 C331.81003047 -0.35480398 333.21463576 -0.35901272 334.61915962 -0.37099043 C360.13002051 -0.57481951 383.35738083 9.98332713 401.52981091 27.69672108 C415.8018165 42.68777429 426.99967866 64.13047901 427.03512573 85.23331642 C427.03958358 86.46652652 427.04404142 87.69973661 427.04863435 88.97031671 C427.04854506 90.33589002 427.04835522 91.70146334 427.04807568 93.06703663 C427.0513763 94.52012915 427.05510229 95.97322075 427.05921715 97.42631119 C427.06922312 101.42028315 427.07295171 105.41424008 427.07560647 109.40822279 C427.07951382 113.71591778 427.08909202 118.02360092 427.09781933 122.33128834 C427.11757406 132.73649034 427.12764979 143.1416933 427.13654712 153.54690936 C427.14093262 158.450614 427.14629884 163.35431756 427.15153599 168.25802135 C427.16854911 184.56650824 427.1830415 200.87499445 427.19028473 217.18348885 C427.19219454 221.414869 427.19411488 225.64624915 427.19607067 229.87762928 C427.19655441 230.92928243 427.19703815 231.98093559 427.19753655 233.06445702 C427.20583014 250.08619451 427.23115534 267.10786156 427.26365135 284.12956832 C427.29676497 301.61787719 427.31473747 319.10615033 427.31792897 336.59449071 C427.32009034 346.40837482 427.32878406 356.2221563 427.35439014 366.03600979 C427.37615618 374.39733104 427.38411872 382.75852474 427.37442336 391.11987112 C427.36989539 395.38112349 427.37167656 399.64211301 427.39118481 403.9033289 C427.40893826 407.81529278 427.4077215 411.72680444 427.39228752 415.63877394 C427.38992971 417.04334689 427.39413845 418.44795218 427.40611617 419.85247604 C427.60994525 445.36333693 417.0517986 468.59069726 399.33840466 486.76312733 C384.34735145 501.03513292 362.90464672 512.23299508 341.80180931 512.26844215 C340.56859922 512.2729 339.33538912 512.27735784 338.06480902 512.28195077 C336.69923571 512.28186148 335.33366239 512.28167165 333.9680891 512.2813921 C332.51499658 512.28469272 331.06190498 512.28841871 329.60881454 512.29253358 C325.61484258 512.30253954 321.62088565 512.30626813 317.62690294 512.30892289 C313.31920795 512.31283024 309.01152481 512.32240844 304.70383739 512.33113575 C294.29863539 512.35089048 283.89343244 512.36096622 273.48821637 512.36986354 C268.58451173 512.37424904 263.68080817 512.37961526 258.77710438 512.38485241 C242.4686175 512.40186554 226.16013128 512.41635792 209.85163689 512.42360115 C205.62025673 512.42551096 201.38887658 512.4274313 197.15749645 512.42938709 C196.1058433 512.42987083 195.05419014 512.43035457 193.97066871 512.43085297 C176.94893123 512.43914656 159.92726417 512.46447176 142.90555742 512.49696777 C125.41724854 512.53008139 107.9289754 512.5480539 90.44063503 512.55124539 C80.62675091 512.55340676 70.81296943 512.56210049 60.99911594 512.58770657 C52.63779469 512.6094726 44.27660099 512.61743514 35.91525462 512.60773978 C31.65400224 512.60321181 27.39301272 512.60499299 23.13179684 512.62450123 C19.21983296 512.64225468 15.30832129 512.64103792 11.39635179 512.62560394 C9.99177884 512.62324613 8.58717355 512.62745487 7.18264969 512.63943259 C-18.3282112 512.84326167 -41.55557152 502.28511502 -59.72800159 484.57172108 C-74.00000719 469.58066787 -85.19786935 448.13796314 -85.23331642 427.03512573 C-85.23777427 425.80191564 -85.24223211 424.56870554 -85.24682504 423.29812545 C-85.24673575 421.93255213 -85.24654591 420.56697882 -85.24626637 419.20140553 C-85.24956699 417.74831301 -85.25329298 416.2952214 -85.25740784 414.84213096 C-85.26741381 410.848159 -85.27114239 406.85420207 -85.27379715 402.86021936 C-85.27770451 398.55252437 -85.28728271 394.24484123 -85.29601002 389.93715382 C-85.31576475 379.53195182 -85.32584048 369.12674886 -85.33473781 358.72153279 C-85.33912331 353.81782815 -85.34448953 348.91412459 -85.34972668 344.0104208 C-85.3667398 327.70193392 -85.38123219 311.3934477 -85.38847542 295.08495331 C-85.39038523 290.85357315 -85.39230557 286.62219301 -85.39426136 282.39081287 C-85.3947451 281.33915972 -85.39522884 280.28750656 -85.39572724 279.20398513 C-85.40402083 262.18224765 -85.42934603 245.16058059 -85.46184204 228.13887384 C-85.49495566 210.65056497 -85.51292816 193.16229182 -85.51611966 175.67395145 C-85.51828103 165.86006733 -85.52697475 156.04628585 -85.55258083 146.23243237 C-85.57434687 137.87111111 -85.58230941 129.50991741 -85.57261405 121.14857104 C-85.56808608 116.88731867 -85.56986725 112.62632914 -85.5893755 108.36511326 C-85.60712894 104.45314938 -85.60591219 100.54163771 -85.5904782 96.62966821 C-85.5881204 95.22509526 -85.59232914 93.82048997 -85.60430685 92.41596612 C-85.80813594 66.90510522 -75.24998929 43.6777449 -57.53659534 25.50531483 C-42.54554214 11.23330923 -21.10283741 0.03544707 0 0 Z " fill="#0C0E13" transform="translate(85.09909534454346,-0.13422107696533203)"/>
<path d="M0 0 C1.22800613 -0.00256327 2.45601225 -0.00512655 3.72123069 -0.0077675 C7.08972848 -0.01182003 10.45769049 -0.00257763 13.82612288 0.01256669 C17.47350768 0.02562463 21.12087841 0.02113075 24.76828003 0.01885986 C31.07433732 0.01729324 37.38030089 0.02663812 43.68633461 0.04357338 C52.80358064 0.06804228 61.92078174 0.07577669 71.03805705 0.07953735 C85.8332329 0.08608951 100.62835889 0.10601701 115.42350769 0.13444519 C129.78841402 0.16201784 144.15330677 0.18323569 158.51823425 0.19596863 C159.40494353 0.1967568 160.29165281 0.19754497 161.20523206 0.19835702 C165.65396696 0.20227238 170.10270196 0.20606344 174.55143702 0.20979273 C211.40881282 0.24085014 248.26613195 0.29365212 285.12345886 0.36076355 C285.29102481 5.44014299 285.4121514 10.51787397 285.49253082 15.5993824 C285.52607518 17.32339478 285.57174187 19.04721963 285.63031769 20.77056313 C286.20147169 38.02117188 286.20147169 38.02117188 280.27623749 45.75068474 C276.96786786 49.24597074 273.38970391 52.25212541 269.62345886 55.23576355 C268.14113387 56.54011845 266.66710713 57.85396512 265.20158386 59.1771698 C261.89299623 62.12971678 258.51098331 64.96379421 255.0690155 67.75865173 C249.07033941 72.39674485 249.07033941 72.39674485 244.01372051 77.93709373 C241.0108377 80.19874551 237.72239386 79.77141086 234.10986328 79.73930359 C233.2839834 79.74383372 232.45810353 79.74836385 231.60719699 79.75303125 C228.82966282 79.76469233 226.05260682 79.75499324 223.27507019 79.74552917 C221.28763009 79.74963269 219.30019239 79.75509226 217.3127594 79.7618103 C213.02714059 79.77355502 208.74165062 79.77601252 204.45601845 79.77145386 C197.67791776 79.76465721 190.89998722 79.78049093 184.12191772 79.79985046 C169.72660732 79.83775757 155.33131152 79.85050734 140.93595886 79.86076355 C125.4132106 79.87183265 109.89054038 79.88720165 94.36784571 79.93147612 C87.63203046 79.94982942 80.89640884 79.95372536 74.16057456 79.94654083 C69.96465318 79.94501743 65.76882835 79.95581318 61.5729332 79.9699192 C59.62993802 79.97391733 57.68692442 79.97280457 55.74393654 79.96614647 C53.08638003 79.95774092 50.42948934 79.96778284 47.77197266 79.98222351 C47.00745924 79.97532958 46.24294583 79.96843564 45.45526534 79.9613328 C38.00103608 80.03995119 31.25392909 82.19990252 25.78549957 87.44693089 C19.76044014 94.38476067 19.54315534 103.18040818 19.60588074 111.91960144 C19.59887146 113.13555496 19.59186218 114.35150848 19.5846405 115.60430908 C19.57014257 118.91035821 19.5734111 122.21539408 19.58615685 125.52138448 C19.59636015 128.99784043 19.58687121 132.47425626 19.58061218 135.95071411 C19.57335788 141.78514786 19.58286583 147.61937832 19.60197449 153.45378113 C19.6237494 160.1795371 19.6166788 166.90480807 19.59466887 173.63055235 C19.57646344 179.42791621 19.57398121 185.22513486 19.58442354 191.0225181 C19.59062908 194.47514597 19.59157579 197.92754651 19.57827759 201.38015938 C19.56447935 205.23073523 19.58365252 209.08077619 19.60588074 212.93132019 C19.59778381 214.06144531 19.58968689 215.19157043 19.5813446 216.35594177 C19.66490529 224.19471701 20.95306315 230.58528237 26.08830261 236.7006073 C27.06476746 237.49144714 27.06476746 237.49144714 28.06095886 238.29826355 C28.7093573 238.84353699 29.35775574 239.38881042 30.02580261 239.9506073 C33.97906241 242.60819908 37.50293944 243.60920799 42.24243164 243.63923645 C43.25058929 243.65039993 44.25874695 243.66156342 45.29745483 243.67306519 C46.93959709 243.67630547 46.93959709 243.67630547 48.61491394 243.67961121 C50.35702148 243.69467964 50.35702148 243.69467964 52.13432312 243.71005249 C55.97054045 243.7409263 59.80668785 243.75793159 63.64299011 243.77482605 C66.30386373 243.79353431 68.96472059 243.81301109 71.62557983 243.83351135 C77.9117136 243.88025623 84.19786438 243.91702103 90.48408288 243.95018423 C97.64252214 243.988436 104.80087094 244.03783813 111.95923388 244.08816838 C126.68057224 244.19142434 141.40197563 244.28070531 156.12345886 244.36076355 C153.33186339 247.74801017 150.73188956 250.89715339 147.34220886 253.70451355 C142.861737 257.5293066 138.74914344 261.65992989 134.62345886 265.86076355 C129.9100412 270.66003581 125.14302305 275.27590006 120.04338074 279.66349792 C116.92548724 282.41980458 114.03337089 285.38829048 111.12345886 288.36076355 C106.93807878 292.59482371 102.72666363 296.67908398 98.17814636 300.52482605 C94.83048537 303.51608207 91.72046216 306.74372257 88.56681824 309.93693542 C85.05760207 313.47304214 81.44823986 316.83215181 77.64689636 320.05607605 C76.42387585 321.10348336 75.26206355 322.22215887 74.12345886 323.36076355 C71.49730526 323.56979577 68.97573263 323.654415 66.34757996 323.65129089 C65.54393509 323.65800812 64.74029022 323.66472534 63.91229248 323.67164612 C61.24043155 323.69072232 58.5688213 323.69455737 55.89689636 323.69670105 C54.03236285 323.7031304 52.16783035 323.70985886 50.30329895 323.71687317 C46.38069835 323.72887558 42.45818592 323.73255176 38.53556824 323.73136902 C33.55074232 323.7311675 28.56649735 323.75828103 23.58180809 323.79291344 C19.72087612 323.81536785 15.86007881 323.81920068 11.99908829 323.81814957 C10.16459304 323.82048501 8.33009289 323.8291902 6.49566269 323.8448143 C-15.22242997 324.01221862 -33.44548273 319.50472238 -49.87654114 304.36076355 C-62.54425607 291.83699992 -71.0043409 275.94409052 -71.14869004 257.83714217 C-71.14491072 257.06611688 -71.1411314 256.29509159 -71.13723755 255.5007019 C-71.1410631 254.65618353 -71.14488864 253.81166516 -71.14883012 252.94155532 C-71.15907555 250.13680912 -71.15518416 247.33227088 -71.15119934 244.5275116 C-71.15555053 242.50626945 -71.16073504 240.48502896 -71.16668701 238.46379089 C-71.18004525 232.9905335 -71.18065915 227.51734529 -71.17812371 222.04407477 C-71.17705172 217.46677403 -71.18194326 212.88948716 -71.18672913 208.3121894 C-71.1978136 197.50846457 -71.19826786 186.70477451 -71.19221497 175.90104675 C-71.18617703 164.7749031 -71.1984841 153.64888597 -71.21978503 142.52276391 C-71.23742909 132.95303917 -71.24339792 123.38335459 -71.24014729 113.81361419 C-71.23833858 108.10570542 -71.24092938 102.39788688 -71.25486183 96.6899929 C-71.26748099 91.31943353 -71.26545744 85.94907062 -71.25245094 80.5785141 C-71.25009441 78.6146138 -71.2527865 76.65069949 -71.26107407 74.68681526 C-71.31305448 61.40482281 -70.53174727 49.4217471 -64.37654114 37.36076355 C-64.03469788 36.68851746 -63.69285461 36.01627136 -63.34065247 35.32365417 C-55.47864041 20.63534423 -41.38931324 9.21692139 -25.87654114 3.36076355 C-17.16315615 0.89719931 -9.030194 -0.07035312 0 0 Z " fill="#FDD416" transform="translate(145.8765411376953,80.63923645019531)"/>
<path d="M0 0 C59.07 0 118.14 0 179 0 C179.0825 22.295625 179.165 44.59125 179.25 67.5625 C179.28641602 74.57830322 179.32283203 81.59410645 179.36035156 88.82250977 C179.37841797 97.4510498 179.37841797 97.4510498 179.3817749 101.50230408 C179.38547163 104.30594284 179.40033998 107.10927249 179.42230225 109.91282654 C179.45008216 113.50757716 179.45790258 117.10188918 179.4522891 120.69673717 C179.45400531 122.61344607 179.47527957 124.53010838 179.497715 126.44668674 C179.41063144 144.95375796 172.95369421 162.15572839 159.80859375 175.31640625 C144.99019817 189.47529048 128.1543422 196.54497611 107.53027344 196.34057617 C106.34833908 196.34101425 105.16640472 196.34145233 103.94865417 196.34190369 C100.08538646 196.33983232 96.22256586 196.31657921 92.359375 196.29296875 C89.66367843 196.28568731 86.96798225 196.28295181 84.27227783 196.28010559 C77.9296022 196.27083063 71.58708416 196.24627948 65.24447751 196.21605712 C58.01582223 196.18237023 50.7871589 196.16599142 43.5584445 196.15097082 C28.70554489 196.11972506 13.85278291 196.06705451 -1 196 C-0.04813307 194.88280721 0.90468914 193.76642829 1.85791016 192.65039062 C2.38840973 192.02861938 2.9189093 191.40684814 3.46548462 190.76623535 C5.35505836 188.59132595 7.33415684 186.53325638 9.375 184.5 C10.06335938 183.8090625 10.75171875 183.118125 11.4609375 182.40625 C13.418022 180.55153607 15.39414781 178.80701936 17.4453125 177.0625 C23.78736203 171.55076314 29.59599036 165.47126443 35.5 159.5 C48.81055054 146.03782399 48.81055054 146.03782399 55.00585938 140.77148438 C59.54534558 136.73885559 63.73813842 132.32270393 68 128 C74.14476045 121.76751693 80.327425 115.67347286 87 110 C97.14615417 99.85384583 88.65845801 81.34476343 89 67 C59.63 67 30.26 67 0 67 C0 44.89 0 22.78 0 0 Z " fill="#FDBB02" transform="translate(255,208)"/>
<path d="M0 0 C59.07 0 118.14 0 179 0 C179 26.73 179 53.46 179 81 C178.67 81 178.34 81 178 81 C177.85019188 76.0176848 177.70858316 71.03520615 177.57275391 66.05249023 C177.52619241 64.3789325 177.47785861 62.70542254 177.42724609 61.03198242 C176.83493963 41.34685835 177 21.70920023 177 2 C90.375 2.495 90.375 2.495 2 3 C1.67 23.79 1.34 44.58 1 66 C30.04 66 59.08 66 89 66 C89 66.33 89 66.66 89 67 C59.63 67 30.26 67 0 67 C0 44.89 0 22.78 0 0 Z " fill="#FDDC0B" transform="translate(255,208)"/>
<path d="M0 0 C1.57825199 0.00084835 3.15650516 0.00036709 4.73475647 -0.00132751 C8.9777594 -0.0021808 13.22050277 0.01533559 17.4634459 0.03639436 C21.91301005 0.05527361 26.36258154 0.0569204 30.81217957 0.06047058 C39.21955403 0.06975824 47.6268101 0.09432716 56.03413266 0.12451905 C65.61343706 0.15816573 75.1927474 0.17457477 84.77209628 0.18960536 C104.46035333 0.22088 124.14850413 0.27357604 143.83666992 0.34057617 C143.83666992 0.67057617 143.83666992 1.00057617 143.83666992 1.34057617 C143.07228324 1.34388632 142.30789656 1.34719646 141.52034664 1.35060692 C122.86349622 1.43206464 104.20672628 1.52423028 85.54998684 1.62810326 C76.52748217 1.67808247 67.50498593 1.72452621 58.48242188 1.76245117 C50.61222443 1.79554152 42.74209531 1.83546486 34.87197357 1.88336623 C30.71038754 1.90846306 26.54884583 1.9302925 22.38720512 1.94392014 C18.45802481 1.95689502 14.52899789 1.97910969 10.59990311 2.00795937 C9.1694322 2.01691623 7.73893668 2.02269695 6.30843925 2.02478981 C-17.14799751 2.06519858 -36.98359098 6.01146177 -54.22583008 22.96557617 C-54.78665283 23.51600586 -55.34747559 24.06643555 -55.92529297 24.63354492 C-58.94235019 27.71795754 -60.75753596 30.19718299 -62.16333008 34.34057617 C-63.1348964 35.98273447 -64.13595929 37.6077409 -65.16333008 39.21557617 C-69.8881866 47.03285703 -70.60341276 54.3671644 -71.16333008 63.34057617 C-71.49333008 63.34057617 -71.82333008 63.34057617 -72.16333008 63.34057617 C-74.42892117 50.89104098 -70.54143362 41.22460649 -63.88208008 30.74291992 C-47.98675229 8.52558676 -26.65681283 -0.20336688 0 0 Z " fill="#FAF97B" transform="translate(149.163330078125,80.659423828125)"/>
<path d="M0 0 C25.74 0 51.48 0 78 0 C78 0.33 78 0.66 78 1 C68.34573814 1.7899026 58.75649689 2.19045567 49.0703125 2.31640625 C47.26324829 2.34438293 47.26324829 2.34438293 45.41967773 2.3729248 C40.98818162 2.44039888 36.55658399 2.50106824 32.125 2.5625 C22.18375 2.706875 12.2425 2.85125 2 3 C1.67 23.79 1.34 44.58 1 66 C30.04 66 59.08 66 89 66 C89 66.33 89 66.66 89 67 C59.63 67 30.26 67 0 67 C0 44.89 0 22.78 0 0 Z " fill="#FEF617" transform="translate(255,208)"/>
<path d="M0 0 C38.28 0 76.56 0 116 0 C110.02173913 7.17391304 110.02173913 7.17391304 106 10 C105.34 10 104.68 10 104 10 C105.56960039 6.33759908 106.93903646 5.06096354 110 2 C73.7 2 37.4 2 0 2 C0 1.34 0 0.68 0 0 Z " fill="#F1B706" transform="translate(186,325)"/>
<path d="M0 0 C0.66 0.66 1.32 1.32 2 2 C1.21625 2.721875 0.4325 3.44375 -0.375 4.1875 C-2.95837429 6.95540103 -3.66488816 8.57049516 -5 12 C-5.97156632 13.6421583 -6.97262922 15.26716472 -8 16.875 C-12.72485652 24.69228086 -13.44008268 32.02658822 -14 41 C-14.33 41 -14.66 41 -15 41 C-17.4468746 27.55430296 -12.55973484 16.98338439 -5 6 C-3.40228886 3.91293755 -1.75425436 1.96063723 0 0 Z " fill="#EFE768" transform="translate(92,103)"/>
<path d="M0 0 C10.89 0 21.78 0 33 0 C30.670409 2.329591 30.15872392 2.2765734 27 2.4140625 C25.79887573 2.47219116 25.79887573 2.47219116 24.57348633 2.53149414 C23.72423584 2.56235107 22.87498535 2.59320801 22 2.625 C20.71355591 2.68192017 20.71355591 2.68192017 19.40112305 2.73999023 C13.59732294 2.98247966 7.80885969 3.09522721 2 3 C1.67 4.98 1.34 6.96 1 9 C0.67 9 0.34 9 0 9 C0 6.03 0 3.06 0 0 Z " fill="#FEF446" transform="translate(255,208)"/>
<path d="M0 0 C0.99 0.33 1.98 0.66 3 1 C-2.25442525 5.76636599 -7.50216911 10.51492743 -13 15 C-12.52529766 10.75674237 -10.20101161 9.06772589 -7.0625 6.375 C-6.16660156 5.59898437 -5.27070313 4.82296875 -4.34765625 4.0234375 C-3.57292969 3.35570312 -2.79820312 2.68796875 -2 2 C-1.34 1.34 -0.68 0.68 0 0 Z " fill="#F8C004" transform="translate(248,374)"/>
<path d="M0 0 C4.29 0 8.58 0 13 0 C10.09907498 1.93395001 9.10325263 2.30131941 5.8125 2.625 C4.554375 2.74875 3.29625 2.8725 2 3 C1.67 4.98 1.34 6.96 1 9 C0.67 9 0.34 9 0 9 C0 6.03 0 3.06 0 0 Z " fill="#FCF562" transform="translate(255,208)"/>
<path d="M0 0 C0.66 0.66 1.32 1.32 2 2 C1.01 2 0.02 2 -1 2 C-0.67 1.34 -0.34 0.68 0 0 Z M-17 18 C-16.01 18.495 -16.01 18.495 -15 19 C-15.99 19.495 -15.99 19.495 -17 20 C-17 19.34 -17 18.68 -17 18 Z " fill="#FAAA00" transform="translate(297,361)"/>
<path d="M0 0 C0.33 0.99 0.66 1.98 1 3 C-0.65 4.32 -2.3 5.64 -4 7 C-4 4 -4 4 -2 1.8125 C-1.34 1.214375 -0.68 0.61625 0 0 Z " fill="#F1A903" transform="translate(268,389)"/>
<path d="M0 0 C0.99 0.33 1.98 0.66 3 1 C0.19195732 3.96404505 -2.18315774 6.44499019 -6 8 C-4.55746343 4.63408134 -2.66735273 2.48952921 0 0 Z " fill="#F2BA02" transform="translate(296,327)"/>
<path d="M0 0 C-1.49097658 3.7952131 -3.75700849 5.61042731 -7 8 C-7 5 -7 5 -4.625 2.3125 C-2 0 -2 0 0 0 Z " fill="#26180A" transform="translate(277,380)"/>
<path d="M0 0 C0.99 1.485 0.99 1.485 2 3 C3.03425441 4.40133435 4.07635312 5.79690305 5.125 7.1875 C5.66382813 7.90292969 6.20265625 8.61835938 6.7578125 9.35546875 C7.16773438 9.89816406 7.57765625 10.44085938 8 11 C7.01 11 6.02 11 5 11 C3.61328125 9.609375 3.61328125 9.609375 2.3125 7.75 C1.87550781 7.14671875 1.43851563 6.5434375 0.98828125 5.921875 C0 4 0 4 0 0 Z " fill="#EFCA08" transform="translate(166,309)"/>
<path d="M0 0 C0.66 0 1.32 0 2 0 C0.90931332 3.77545388 0.0916909 6.47043472 -3 9 C-2.5020163 5.26512223 -2.12508244 3.18762365 0 0 Z " fill="#F5EC69" transform="translate(83,116)"/>
<path d="M0 0 C-1.39332574 3.36720387 -2.9789286 4.9859524 -6 7 C-6 4 -6 4 -4.125 1.8125 C-2 0 -2 0 0 0 Z " fill="#291E0E" transform="translate(343,316)"/>
<path d="M0 0 C0.66 0 1.32 0 2 0 C1.67 1.65 1.34 3.3 1 5 C-0.32 5.33 -1.64 5.66 -3 6 C-2.01 4.02 -1.02 2.04 0 0 Z " fill="#EEE675" transform="translate(86,110)"/>
</svg>
